# xmcd
#
# Track frame offsets: 
#        150
#        10657
#        22265
#        36582
#        52260
#        66605
#        81240
#        95252
#        114837
#        126820
#        139390
#        155707
#        169057
#
# Disc length: 2486 seconds
#
# Revision: 2
# Processed by: cddbd v1.5.2PL0 Copyright (c) Steve Scherf et al.
# Submitted via: ExactAudioCopy v1.3
#
DISCID=bc09b40d
DTITLE=The Kentucky Headhunters - Electric Barnyard
DYEAR=1991
DGENRE=Country Rock
TTITLE0=It's Chitlin' Time
TTITLE1=The Ballad Of Davy Crockett
TTITLE2=Only Daddy That'll Walk The Line
TTITLE3=With Body And Soul
TTITLE4=Diane
TTITLE5=16 And Single
TTITLE6=Wishin' Well
TTITLE7=Spirit In The Sky
TTITLE8=Always Makin' Love
TTITLE9=Love Bug Crawl
TTITLE10=Big Mexican Dinner
TTITLE11=Kickin' Them Blues Around
TTITLE12=Take Me Back
EXTD=
EXTT0=
EXTT1=
EXTT2=
EXTT3=
EXTT4=
EXTT5=
EXTT6=
EXTT7=
EXTT8=
EXTT9=
EXTT10=
EXTT11=
EXTT12=
PLAYORDER=
